<svg
  xmlns="http://www.w3.org/2000/svg"
  xmlSpace="preserve"
  width="48.26mm"
  height="59.69mm"
  style="shape-rendering: geometricPrecision; text-rendering: geometricPrecision; image-rendering: optimizeQuality; fill-rule: evenodd; clip-rule: evenodd;"
  viewBox="0 0 4826 5969"
>
  <defs>
    <style type="text/css">
      .fil0 { fill: none; }
      .fil1 { fill: #DD7351; }
      .fil2 { fill: none; stroke: #DD7351; stroke-width: 20; }
      .fil3 { fill: #DD7351; }
    </style>
  </defs>
  <g id="Layer_x0020_1">
    <g id="_403402824">
      <polygon
        class="fil0"
        points="-1.41,102.86 4843.78,102.86 4843.78,5850.08 -1.41,5850.08"
      />
      <g>
        <path
          class="fil1"
          d="M4788.24 2973.33c-10.3,-340.72 -224.77,-682.92 -571.81,-683.31l0 -255.91c-168.22,-35.32 -250,-141.95 -272.65,-297.34l-265.83 0c52.51,-1165.37 -1153.72,-934.08 -1260.08,-1633.91l-9.52 0c-107.5,698.14 -1305.65,469.31 -1253.18,1633.91l-265.83 0c-22.65,155.39 -104.43,262.02 -272.65,297.34l0 255.91c-347.04,0.39 -561.51,342.59 -571.81,683.31 10.3,340.74 224.77,682.91 571.81,683.3l0 255.95c168.22,35.3 250,141.91 272.65,297.34l265.83 0c-52.63,1168.07 1152.95,934.3 1254.16,1640.16l7.57 0c100.04,-707.54 1313.72,-471.32 1261.05,-1640.16l265.83 0c22.65,-155.43 104.43,-262.04 272.65,-297.34l0 -255.95c347.04,-0.39 561.51,-342.56 571.81,-683.3z"
        />
        <path
          class="fil2"
          d="M4659.3 2973.33c-5.3,-302.56 -198.45,-604.11 -572.12,-550.62l0 -297.33c-127.79,-51.74 -208.6,-124.69 -258.9,-268.88l-264.72 -13.47c71.24,-1193.64 -895.83,-871.8 -1150.38,-1460.62 -253.32,591.55 -1227.9,265.64 -1156.58,1460.62l-251.76 13.47c-50.3,144.19 -131.11,217.14 -258.9,268.88l0 297.33c-373.67,-53.49 -566.82,248.06 -572.12,550.62 5.3,302.54 198.45,604.08 572.12,550.61l0 297.35c127.79,51.72 208.6,124.67 258.9,268.87l246.79 13.45c-71.32,1194.99 908.23,869.09 1161.55,1460.63 254.55,-588.83 1223.25,-254.78 1152.01,-1448.42l263.09 -25.66c50.3,-144.2 131.11,-217.15 258.9,-268.87l0 -297.35c373.67,53.47 566.82,-248.07 572.12,-550.61z"
        />
        <path
          class="fil2"
          d="M3470.63 4035.44c71.41,1196.45 -796.98,816.61 -1054.07,1400.79 -257.09,-584.18 -1152.93,-223.79 -1081.52,-1420.24l-280 -4.89c-50.3,-144.21 -103.05,-188.7 -230.84,-240.4l-5.11 -336.17c-367.27,52.56 -519.34,-201.29 -530.87,-461.2 11.53,-259.9 163.6,-513.75 530.87,-461.2l5.11 -336.15c127.79,-51.72 180.54,-96.22 230.84,-240.42l289.99 -5.05c-71.41,-1196.46 814.44,-835.91 1071.53,-1420.08 257.09,584.17 1107.07,222.99 1035.67,1419.45l325.85 5.68c50.3,144.2 103.05,188.7 230.85,240.42l5.1 336.15c367.27,-52.55 527,201.3 538.52,461.2 -11.52,259.91 -171.25,513.76 -538.52,461.2l-5.1 336.17c-127.8,51.7 -180.55,96.19 -230.85,240.4l-307.45 24.34z"
        />
        <g>
          <path
            class="fil3"
            d="M1538.56 2781.96c-32.12,0 -56.01,-11.84 -71.68,-35.51 -15.69,-23.67 -23.53,-57.77 -23.53,-102.3 0,-44.54 7.84,-78.64 23.53,-102.31 15.67,-23.67 39.56,-35.5 71.68,-35.5 12.04,0 22.45,1.66 31.22,4.96 8.79,3.31 16.31,7.77 22.58,13.36 6.28,5.6 11.54,11.9 15.81,18.9 4.26,7 8.03,14.06 11.29,21.19l-27.1 12.6c-2.25,-5.85 -4.89,-11.39 -7.9,-16.61 -3.01,-5.22 -6.58,-9.8 -10.73,-13.74 -4.13,-3.95 -9.03,-7.06 -14.66,-9.35 -5.65,-2.3 -12.48,-3.44 -20.51,-3.44 -20.83,0 -36.31,8.02 -46.48,24.05 -10.16,16.03 -15.24,37.4 -15.24,64.14l0 43.51c0,26.72 5.08,48.1 15.24,64.13 10.17,16.04 25.65,24.06 46.48,24.06 8.03,0 14.86,-1.15 20.51,-3.44 5.63,-2.29 10.53,-5.41 14.66,-9.35 4.15,-3.95 7.72,-8.53 10.73,-13.74 3.01,-5.22 5.65,-10.76 7.9,-16.61l27.1 12.6c-3.26,7.38 -7.03,14.5 -11.29,21.37 -4.27,6.88 -9.53,13.11 -15.81,18.71 -6.27,5.6 -13.79,10.06 -22.58,13.35 -8.77,3.32 -19.18,4.97 -31.22,4.97zm217.12 0c-13.54,0 -25.78,-2.41 -36.69,-7.26 -10.91,-4.83 -20.2,-11.76 -27.84,-20.8 -7.66,-9.03 -13.49,-19.85 -17.5,-32.45 -4.02,-12.6 -6.02,-26.78 -6.02,-42.57 0,-15.51 2,-29.64 6.02,-42.36 4.01,-12.73 9.84,-23.61 17.5,-32.64 7.64,-9.04 16.93,-15.97 27.84,-20.8 10.91,-4.85 23.15,-7.26 36.69,-7.26 13.55,0 25.78,2.41 36.69,7.26 10.91,4.83 20.19,11.76 27.85,20.8 7.64,9.03 13.47,19.91 17.49,32.64 4.01,12.72 6.02,26.85 6.02,42.36 0,15.79 -2.01,29.97 -6.02,42.57 -4.02,12.6 -9.85,23.42 -17.49,32.45 -7.66,9.04 -16.94,15.97 -27.85,20.8 -10.91,4.85 -23.14,7.26 -36.69,7.26zm0 -26.34c16.81,0 30.36,-5.08 40.64,-15.27 10.29,-10.18 15.43,-25.96 15.43,-47.33l0 -28.25c0,-21.38 -5.14,-37.16 -15.43,-47.34 -10.28,-10.19 -23.83,-15.27 -40.64,-15.27 -16.8,0 -30.35,5.08 -40.64,15.27 -10.28,10.18 -15.43,25.96 -15.43,47.34l0 28.25c0,21.37 5.15,37.15 15.43,47.33 10.29,10.19 23.84,15.27 40.64,15.27zm141.87 -4.2l56.82 0 0 -145.06 -56.82 0 0 -25.96 86.93 0 0 49.63 1.87 0c4.02,-15.53 11.6,-27.68 22.77,-36.46 11.16,-8.77 25.4,-13.17 42.71,-13.17l27.08 0 0 30.54 -36.49 0c-17.31,0 -31.3,5.09 -41.95,15.27 -10.67,10.18 -15.99,23.54 -15.99,40.09l0 85.12 75.25 0 0 25.96 -162.18 0 0 -25.96zm232.55 -171.02l30.11 0 0 32.06 1.5 0c12.54,-24.43 32.48,-36.64 59.83,-36.64 23.83,0 42.46,9.04 55.88,27.1 13.42,18.07 20.13,43.39 20.13,75.96 0,32.59 -6.71,57.91 -20.13,75.98 -13.42,18.06 -32.05,27.1 -55.88,27.1 -27.35,0 -47.29,-12.21 -59.83,-36.65l-1.5 0 0 108.42 -30.11 0 0 -273.33zm79.78 174.46c17.56,0 31.17,-5.41 40.83,-16.23 9.66,-10.82 14.48,-25.13 14.48,-42.94l0 -33.6c0,-17.81 -4.82,-32.12 -14.48,-42.94 -9.66,-10.82 -23.27,-16.23 -40.83,-16.23 -6.78,0 -13.17,0.89 -19.2,2.68 -6.01,1.78 -11.29,4.38 -15.81,7.82 -4.5,3.44 -8.08,7.63 -10.71,12.6 -2.64,4.97 -3.95,10.76 -3.95,17.37l0 71c0,6.61 1.31,12.4 3.95,17.37 2.63,4.97 6.21,9.17 10.71,12.6 4.52,3.44 9.8,6.04 15.81,7.82 6.03,1.78 12.42,2.68 19.2,2.68zm223.14 27.1c-13.54,0 -25.77,-2.41 -36.69,-7.26 -10.91,-4.83 -20.2,-11.76 -27.84,-20.8 -7.66,-9.03 -13.49,-19.85 -17.5,-32.45 -4.02,-12.6 -6.02,-26.78 -6.02,-42.57 0,-15.51 2,-29.64 6.02,-42.36 4.01,-12.73 9.84,-23.61 17.5,-32.64 7.64,-9.04 16.93,-15.97 27.84,-20.8 10.92,-4.85 23.15,-7.26 36.69,-7.26 13.55,0 25.78,2.41 36.69,7.26 10.91,4.83 20.19,11.76 27.85,20.8 7.65,9.03 13.48,19.91 17.49,32.64 4.01,12.72 6.02,26.85 6.02,42.36 0,15.79 -2.01,29.97 -6.02,42.57 -4.01,12.6 -9.84,23.42 -17.49,32.45 -7.66,9.04 -16.94,15.97 -27.85,20.8 -10.91,4.85 -23.14,7.26 -36.69,7.26zm0 -26.34c16.81,0 30.36,-5.08 40.64,-15.27 10.29,-10.18 15.43,-25.96 15.43,-47.33l0 -28.25c0,-21.38 -5.14,-37.16 -15.43,-47.34 -10.28,-10.19 -23.83,-15.27 -40.64,-15.27 -16.8,0 -30.35,5.08 -40.64,15.27 -10.28,10.18 -15.42,25.96 -15.42,47.34l0 28.25c0,21.37 5.14,37.15 15.42,47.33 10.29,10.19 23.84,15.27 40.64,15.27zm141.87 -4.2l56.82 0 0 -145.06 -56.82 0 0 -25.96 86.93 0 0 49.63 1.88 0c4.01,-15.53 11.59,-27.68 22.76,-36.46 11.16,-8.77 25.41,-13.17 42.71,-13.17l27.09 0 0 30.54 -36.5 0c-17.31,0 -31.3,5.09 -41.95,15.27 -10.67,10.18 -15.99,23.54 -15.99,40.09l0 85.12 75.25 0 0 25.96 -162.18 0 0 -25.96zm383.07 25.96c-11.8,0 -20.19,-3.05 -25.21,-9.16 -5.02,-6.1 -8.15,-13.75 -9.41,-22.91l-1.88 0c-4.26,11.45 -11.1,20.43 -20.51,26.92 -9.4,6.48 -22.02,9.73 -37.81,9.73 -20.33,0 -36.5,-5.34 -48.55,-16.03 -12.04,-10.69 -18.06,-25.33 -18.06,-43.9 0,-18.33 6.58,-32.45 19.75,-42.37 13.17,-9.93 34.44,-14.89 63.78,-14.89l41.4 0 0 -19.48c0,-14.5 -4.01,-25.38 -12.04,-32.63 -8.03,-7.26 -19.44,-10.88 -34.24,-10.88 -13.05,0 -23.71,2.6 -31.98,7.82 -8.29,5.23 -14.94,12.29 -19.95,21.19l-20.32 -15.27c2.5,-5.09 5.89,-10.06 10.16,-14.89 4.26,-4.83 9.52,-9.1 15.8,-12.78 6.27,-3.7 13.42,-6.63 21.45,-8.78 8.02,-2.17 16.93,-3.25 26.72,-3.25 22.82,0 40.95,5.85 54.38,17.55 13.41,11.72 20.12,28.01 20.12,48.87l0 108.42 27.1 0 0 26.72 -20.7 0zm-89.56 -20.99c7.78,0 14.87,-0.96 21.26,-2.86 6.39,-1.92 11.98,-4.46 16.75,-7.65 4.76,-3.17 8.47,-7 11.1,-11.44 2.64,-4.46 3.95,-9.23 3.95,-14.32l0 -32.45 -41.4 0c-18.05,0 -31.22,2.54 -39.5,7.64 -8.29,5.09 -12.42,12.46 -12.42,22.13l0 8.02c0,10.19 3.57,17.88 10.72,23.1 7.16,5.21 17,7.83 29.54,7.83zm251.37 20.99c-14.8,0 -25.65,-4.2 -32.54,-12.6 -6.9,-8.39 -10.36,-19.21 -10.36,-32.45l0 -125.97 -64.72 0 0 -25.96 48.16 0c6.53,0 11.11,-1.33 13.75,-4.01 2.62,-2.68 3.94,-7.32 3.94,-13.93l0 -51.53 28.97 0 0 69.47 88.44 0 0 25.96 -88.44 0 0 145.06 88.44 0 0 25.96 -75.64 0zm219.76 4.58c-14.04,0 -26.66,-2.41 -37.81,-7.26 -11.17,-4.83 -20.71,-11.76 -28.6,-20.8 -7.9,-9.03 -13.99,-19.85 -18.25,-32.45 -4.27,-12.6 -6.41,-26.65 -6.41,-42.18 0,-15.77 2.2,-30.03 6.59,-42.75 4.4,-12.73 10.47,-23.61 18.25,-32.64 7.78,-9.04 17.12,-15.97 28.03,-20.8 10.92,-4.85 23.03,-7.26 36.32,-7.26 13.05,0 24.9,2.41 35.55,7.26 10.67,4.83 19.76,11.5 27.29,20.03 7.53,8.53 13.3,18.65 17.31,30.35 4.02,11.71 6.02,24.56 6.02,38.56l0 14.51 -143.74 0 0 9.16c0,8.66 1.37,16.66 4.13,24.04 2.77,7.39 6.72,13.75 11.86,19.09 5.14,5.34 11.41,9.49 18.81,12.41 7.4,2.93 15.61,4.39 24.65,4.39 13.04,0 24.33,-3.05 33.87,-9.17 9.52,-6.1 16.8,-14.5 21.82,-25.18l22.2 15.26c-5.77,13.24 -15.36,24.12 -28.78,32.65 -13.42,8.52 -29.8,12.78 -49.11,12.78zm-1.88 -180.94c-8.28,0 -15.93,1.52 -22.95,4.58 -7.03,3.05 -13.11,7.25 -18.25,12.59 -5.14,5.35 -9.17,11.65 -12.05,18.9 -2.89,7.26 -4.32,15.2 -4.32,23.85l0 2.68 111.37 0 0 -4.2c0,-8.65 -1.31,-16.54 -3.94,-23.66 -2.64,-7.14 -6.27,-13.3 -10.92,-18.52 -4.64,-5.22 -10.28,-9.22 -16.92,-12.03 -6.66,-2.8 -13.99,-4.19 -22.02,-4.19z"
          />
          <path
            class="fil3"
            d="M1861.48 2970.97l-73.1 0 0 449.43 -78.44 -61.49 0 -119.37 -10.69 5.43 -23.19 9.95 -29.4 2.72c-39.83,0 -75.48,-20.51 -106.97,-61.5 -25.55,-33.15 -38.33,-57.57 -38.33,-73.24l0 -151.93 -67.74 0 0 -66.01 427.86 0 0 66.01zm-151.54 176.34l0 -176.34 -130.14 0 0 167.29c0,12.66 1.79,21.71 5.35,27.13 7.13,10.86 21.68,16.28 43.68,16.28 17.83,0 37.43,-5.42 58.83,-16.28 12.47,-7.23 19.91,-13.26 22.28,-18.08zm520.57 -176.34l-110.54 0 0 111.22 -162.24 0 -2.66 12.67 10.69 15.37 13.38 13.56 10.69 -2.71 33.87 -3.61 18.72 0c33.87,0 65.06,11.75 93.6,35.11 30.3,22.76 45.46,47.78 45.46,74.76 0,23.36 -8.03,45.06 -24.07,64.81 -9.51,12.66 -19.61,22.91 -30.31,30.59 -8.32,7.23 -19.62,12.06 -33.88,14.47l-54.36 -69.63 15.15 -15.37 14.26 4.52c4.75,0 9.81,-1.51 15.15,-4.52l22.29 -9.8c10.7,-7.09 17.23,-15.53 19.61,-25.01 0,-6.49 -5.5,-13.28 -16.5,-20.05 -10.98,-6.79 -25.4,-10.25 -43.22,-10.25 -30.32,0 -54.97,6.33 -73.99,18.99 -17.23,12.66 -25.85,29.23 -25.85,49.73 0,36.18 21.99,68.13 65.97,95.85l20.49 12.67 22.29 10.85c13.07,4.82 26.45,7.24 40.12,7.24l10.69 -0.91 -38.33 58.78c-50.51,-27.73 -85.27,-48.83 -104.29,-63.3 -65.97,-48.83 -98.95,-98.27 -98.95,-148.3l2.68 -25.32c1.78,-7.24 5.64,-14.77 11.58,-22.61 2.97,-4.82 8.03,-10.55 15.16,-17.19l18.72 -16.27 -16.94 -18.99 -14.26 -19c-9.51,-16.27 -14.26,-30.14 -14.26,-41.59 0,-15.07 4.45,-28.79 13.36,-41.14 8.93,-12.36 20.51,-18.54 34.77,-18.54l114.99 0 0 -37.08 -232.65 0 0 -66.01 413.61 0 0 66.01zm374.36 0l-73.08 0 0 449.43 -78.45 -61.49 0 -219.74 -115.88 0 0 78.67c0,9.04 -8.32,15.68 -24.96,19.9 -2.97,0 -10.69,-4.52 -23.17,-13.57l-18.72 -17.18c-5.95,-6.03 -13.08,-15.37 -21.39,-28.03 -15.45,-21.7 -26.15,-38.28 -32.09,-49.74 -2.97,-6.62 -5.35,-13.56 -7.13,-20.79 -1.78,-7.24 -2.68,-11.16 -2.68,-11.77 0,-7.23 2.53,-14.15 7.58,-20.79 5.05,-6.64 11.43,-10.25 19.17,-10.86l219.27 0 0 -94.04 -301.28 0 0 -66.01 452.81 0 0 66.01zm189.87 0l-72.2 0 0 449.43 -78.44 -61.49 0 -387.94 -78.44 0 0 -66.01 229.08 0 0 66.01zm423.41 0l-73.1 0 0 449.43 -78.43 -61.49 0 -100.38 -25.86 14.47 -34.76 12.66c-11.89,3.62 -21.99,5.43 -30.31,5.43 -20.2,0 -38.62,-3.31 -55.26,-9.95 -16.64,-6.62 -34.46,-17.78 -53.49,-33.45 -17.82,-16.29 -32.09,-33.47 -42.78,-51.55 -4.75,-10.24 -8.32,-20.04 -10.7,-29.39 -2.37,-9.34 -3.56,-19.74 -3.56,-31.19 0,-42.81 18.13,-74.46 54.37,-94.96 26.15,-15.07 62.39,-22.6 108.75,-22.6l48.13 0 36.55 84.09 -19.61 0 -24.07 -3.61 -41 -2.71c-60.02,0 -90.02,17.18 -90.02,51.54l2.66 16.27c3.57,16.28 11,29.25 22.29,38.89 11.29,8.44 30,12.66 56.16,12.66 12.48,0 29.12,-4.52 49.91,-13.56l30.31 -19.9 22.29 -18.98 0 -191.72 -321.79 0 0 -66.01 473.32 0 0 66.01zm188.98 0l-72.21 0 0 449.43 -78.44 -61.49 0 -387.94 -78.44 0 0 -66.01 229.09 0 0 66.01z"
          />
        </g>
      </g>
    </g>
  </g>
</svg>